<?xml version="1.0" encoding="utf-8"?>
<!-- Generator: Adobe Illustrator 25.0.0, SVG Export Plug-In . SVG Version: 6.00 Build 0)  -->
<svg version="1.1" id="Layer_1" xmlns="http://www.w3.org/2000/svg" xmlns:xlink="http://www.w3.org/1999/xlink" x="0px" y="0px"
	 viewBox="0 0 123 228" style="enable-background:new 0 0 123 228;" xml:space="preserve">
<style type="text/css">
	.st0{opacity:0.4;fill:#19263F;}
	.st1{opacity:0.4;fill:#B19357;}
	.st2{opacity:0.4;fill:#2D467A;}
	.st3{opacity:0.4;fill:#902D3A;}
	.st4{fill:#B19357;}
	.st5{fill:#2D467A;}
	.st6{fill:#902D3A;}
	.st7{fill:#19263F;}
</style>
<circle class="st0" cx="94.1" cy="69.3" r="3.7"/>
<circle class="st1" cx="92.3" cy="131.8" r="1.8"/>
<circle class="st2" cx="49.6" cy="17.2" r="6"/>
<circle class="st3" cx="114.7" cy="5" r="2.6"/>
<path class="st0" d="M-35.3,105.3L81.3,16.7c9.1-6.9,22.2-5.2,29.1,4l0,0c6.9,9.1,5.2,22.2-4,29.1l-116.6,88.5
	c-9.1,6.9-22.2,5.2-29.1-4l0,0C-46.2,125.2-44.4,112.2-35.3,105.3z"/>
<path class="st3" d="M-19,150.3L72.3,81c7.5-5.7,18.2-4.2,23.9,3.3l0,0c5.7,7.5,4.2,18.2-3.3,23.9L1.6,177.5
	c-7.5,5.7-18.2,4.2-23.9-3.3l0,0C-28,166.7-26.6,156-19,150.3z"/>
<path class="st1" d="M-35.2,225.2l102.7-78c6.2-4.7,15.1-3.5,19.8,2.7l0,0c4.7,6.2,3.5,15.1-2.7,19.8l-102.7,78
	c-6.2,4.7-15.1,3.5-19.8-2.7l0,0C-42.7,238.8-41.5,230-35.2,225.2z"/>
<rect x="-54.7" y="-157.5" class="st4" width="126.9" height="51.6"/>
<rect x="-205.4" y="-152" class="st5" width="126.9" height="51.6"/>
<rect x="116.4" y="-157.5" class="st6" width="126.9" height="51.6"/>
<rect x="287.6" y="-152" class="st7" width="126.9" height="51.6"/>
</svg>
