<?xml version="1.0" encoding="utf-8"?>
<!-- Generator: Adobe Illustrator 25.0.0, SVG Export Plug-In . SVG Version: 6.00 Build 0)  -->
<svg version="1.1" id="Layer_1" xmlns="http://www.w3.org/2000/svg" xmlns:xlink="http://www.w3.org/1999/xlink" x="0px" y="0px"
	 viewBox="0 0 29 31" style="enable-background:new 0 0 29 31;" xml:space="preserve">
<style type="text/css">
	.st0{fill:#19263F;}
	.st1{fill:#2D467A;}
	.st2{fill:#902D3A;}
	.st3{fill:#B19357;}
</style>
<g>
	<path class="st0" d="M5.1,30.7c0-0.7,0-1.3,0-2c2.8,0,5.6,0,8.4,0c0-0.6,0-1.2,0-1.8c-2.8,0-5.6,0-8.4,0c0-0.7,0-1.3,0-2
		c0.4,0,0.7,0,1.1,0c0.9,0,1.8,0,2.7,0c0.4,0,0.5-0.1,0.5-0.5c0-3.8,0-7.7,0-11.5c0-0.2,0-0.4,0.1-0.6c0.1-0.2,0.3-0.3,0.4-0.3
		c0.4-0.2,1.1-0.6,2.1-1.2c0,0.1,0,0.2,0,0.5c-0.1,4.4,0,8.7,0,13.1c0,0.4,0.1,0.6,0.6,0.6c1,0,1,0,1-1c0-5.4,0-10.9,0-16.3
		c0-0.1,0-0.2,0-0.3c0.8,0,1.7,0,2.6,0c0,7,0,13.9,0,20.9c2.6,0,5.2,0,7.8,0c0,0.9,0,1.7,0,2.5C17.6,30.7,11.4,30.7,5.1,30.7z"/>
	<path class="st0" d="M17.7,7.3c0.8,0,1.7,0,2.5,0c0,5.7,0,11.5,0,17.2c1.2,0,2.4,0,3.6,0c0,0.8,0,1.6,0,2.4c-2,0-4.1,0-6.1,0
		C17.7,20.4,17.7,13.9,17.7,7.3z"/>
	<path class="st0" d="M23.9,2.7c-6,0-12,0-18.1,0c0-0.8,0-1.6,0-2.4c6,0,12,0,18.1,0C23.9,1.1,23.9,1.8,23.9,2.7z"/>
	<path class="st0" d="M21.6,6.1c-4.5,0-9.1,0-13.6,0c0-0.8,0-1.5,0-2.3c4.5,0,9,0,13.6,0C21.6,4.5,21.6,5.3,21.6,6.1z"/>
	<path class="st1" d="M13.5,30.7c-2.8,0-5.6,0-8.4,0c0-0.7,0-1.3,0-2c2.8,0,5.6,0,8.4,0C13.5,29.4,13.5,30,13.5,30.7z"/>
	<path class="st2" d="M13.5,27c-2.8,0-5.6,0-8.4,0c0-0.7,0-1.3,0-2c4.5,0,7.9,0,7.9,0c0,0,0.1,0,0.1,0c0,0,0.1,0,0.1,0
		c0.2,0,0.3-0.1,0.3-0.1c0,0,0.1-0.1,0.1-0.2C13.5,25.4,13.5,26.2,13.5,27z"/>
	<path class="st3" d="M12.1,9.9c-0.8,0.3-1.5,0.7-2.3,1c0,0-0.1,0-0.2,0c-0.1,0-0.1-0.1-0.1-0.2c0-1.1,0-2.3,0-3.4
		c0.9,0,1.7,0,2.6,0V9.9z"/>
</g>
</svg>
