<?xml version="1.0" encoding="utf-8"?>
<!-- Generator: Adobe Illustrator 25.0.0, SVG Export Plug-In . SVG Version: 6.00 Build 0)  -->
<svg version="1.1" id="Layer_1" xmlns="http://www.w3.org/2000/svg" xmlns:xlink="http://www.w3.org/1999/xlink" x="0px" y="0px"
	 viewBox="0 0 94.9 43" style="enable-background:new 0 0 94.9 43;" xml:space="preserve">
<style type="text/css">
	.st0{fill:#19263F;}
	.st1{fill:#2D467A;}
	.st2{fill:#902D3A;}
	.st3{fill:#B19357;}
</style>
<g>
	<g>
		<path class="st0" d="M1,42.5c0-0.9,0-1.8,0-2.7c3.9,0,7.7,0,11.6,0c0-0.9,0-1.6,0-2.4c-3.9,0-7.7,0-11.6,0c0-0.9,0-1.8,0-2.8
			c0.5,0,1,0,1.5,0c1.3,0,2.5,0,3.8,0c0.6,0,0.7-0.2,0.7-0.7c0-5.3,0-10.6,0-15.9c0-0.3,0-0.6,0.2-0.8c0.2-0.3,0.4-0.4,0.5-0.4
			c0.5-0.3,1.5-0.8,2.9-1.6c0,0.1,0,0.3,0,0.6c-0.1,6,0,12,0,18c0,0.6,0.2,0.8,0.8,0.8c1.3,0,1.3,0,1.3-1.3c0-7.5,0-15,0-22.5
			c0-0.1,0-0.3,0-0.5c1.2,0,2.3,0,3.5,0c0,9.6,0,19.2,0,28.8c3.6,0,7.1,0,10.7,0c0,1.2,0,2.3,0,3.5C18.3,42.5,9.6,42.5,1,42.5z"/>
		<path class="st0" d="M18.4,10.2c1.2,0,2.3,0,3.5,0c0,7.9,0,15.8,0,23.8c1.7,0,3.3,0,5,0c0,1.1,0,2.2,0,3.3c-2.8,0-5.6,0-8.5,0
			C18.4,28.2,18.4,19.2,18.4,10.2z"/>
		<path class="st0" d="M26.9,3.8c-8.3,0-16.6,0-24.9,0c0-1.1,0-2.2,0-3.4c8.3,0,16.6,0,24.9,0C26.9,1.5,26.9,2.6,26.9,3.8z"/>
		<path class="st0" d="M23.8,8.4c-6.3,0-12.5,0-18.8,0c0-1.1,0-2.1,0-3.1c6.2,0,12.5,0,18.8,0C23.8,6.3,23.8,7.3,23.8,8.4z"/>
		<path class="st1" d="M12.6,42.5c-3.9,0-7.7,0-11.6,0c0-0.9,0-1.8,0-2.7c3.9,0,7.7,0,11.6,0C12.6,40.6,12.6,41.5,12.6,42.5z"/>
		<path class="st2" d="M12.6,37.3c-3.9,0-7.8,0-11.6,0c0-0.9,0-1.8,0-2.8c6.3,0,10.9,0,10.9,0c0.1,0,0.1,0,0.1,0c0,0,0.1,0,0.1,0
			c0.3,0,0.4-0.2,0.4-0.2c0,0,0.1-0.1,0.1-0.2C12.6,35.2,12.6,36.2,12.6,37.3z"/>
		<path class="st3" d="M10.6,13.7c-1,0.5-2.1,1-3.1,1.4c0,0-0.1,0.1-0.3,0C7.1,15.1,7,15,7.1,14.9c0-1.6,0-3.1,0-4.7
			c1.2,0,2.4,0,3.6,0V13.7z"/>
	</g>
	<g>
		<path class="st0" d="M35.7,16.5h-2.6V0.5h2.6V16.5z"/>
		<path class="st0" d="M46.8,16.5h-2.3l-4.2-10c0.1,0.5,0.2,0.9,0.2,1.1v8.9h-2.6V0.5h2.3l4.2,9.8c-0.1-0.5-0.2-0.9-0.2-1.1V0.5h2.6
			V16.5z"/>
		<path class="st0" d="M56.6,2.6h-2.9v13.8h-2.6V2.6h-2.9V0.5h8.5V2.6z"/>
		<path class="st0" d="M65.3,16.5H58V0.5h7.3v2.1h-4.6v4.6h4v2.1h-4v5h4.7V16.5z"/>
		<path class="st0" d="M76.2,16.5h-2.8l-2.9-7.4V7.6h2.6v-5h-3.3v13.9h-2.6V0.5h7c1.1,0,1.6,0.5,1.6,1.5v5.8c0,0.7-0.3,1.1-0.8,1.3
			c-0.3,0.1-0.8,0.2-1.7,0.2L76.2,16.5z"/>
	</g>
	<g>
		<path class="st0" d="M40,36.2H33V20.3h2.6V34H40V36.2z"/>
		<path class="st0" d="M50.5,36.2h-2.6l-0.5-3H44l-0.5,3h-2.6v0l3.4-15.9h2.8L50.5,36.2z M47,31.1l-1.3-7.2l-1.3,7.2H47z"/>
		<path class="st0" d="M60.6,34.7c0,1-0.5,1.5-1.6,1.5H52V20.3h7c1,0,1.6,0.5,1.6,1.5v4.1c0,0.5-0.2,1-0.6,1.3
			c-0.1,0-0.5,0.3-1.4,0.8c0.9,0.5,1.4,0.8,1.4,0.8c0.4,0.3,0.6,0.8,0.6,1.3V34.7z M57.9,26.1v-3.9h-3.3v4.7h2L57.9,26.1z M58,34.2
			v-4.5l-1.3-0.8h-2.1v5.3H58z"/>
		<path class="st0" d="M71.6,34.7c0,1-0.5,1.5-1.6,1.5h-5.7c-1,0-1.6-0.5-1.6-1.5v-13c0-1,0.5-1.5,1.6-1.5H70c1.1,0,1.6,0.5,1.6,1.5
			V34.7z M69,34.1V22.3h-3.6v11.8H69z"/>
		<path class="st0" d="M82.6,34.7c0,1-0.5,1.5-1.6,1.5h-5.6c-1.1,0-1.6-0.5-1.6-1.5V20.3h2.6v13.9h3.6V20.3h2.6V34.7z"/>
		<path class="st0" d="M93.8,36.2H91l-2.9-7.4v-1.4h2.6v-5h-3.3v13.9h-2.6V20.3h7c1.1,0,1.6,0.5,1.6,1.5v5.8c0,0.7-0.3,1.1-0.8,1.3
			c-0.3,0.1-0.8,0.2-1.7,0.2L93.8,36.2z"/>
	</g>
	<g>
		<path d="M32.9,41.7v-3.1h1.2c0.2,0,0.3,0,0.4,0.1c0.1,0.1,0.2,0.2,0.3,0.3c0.1,0.1,0.1,0.3,0.1,0.4c0,0.2,0,0.3-0.1,0.4
			c-0.1,0.1-0.2,0.2-0.3,0.3v0c0.1,0,0.2,0.1,0.3,0.2c0.1,0.1,0.2,0.2,0.2,0.3c0,0.1,0.1,0.2,0.1,0.4c0,0.3-0.1,0.5-0.2,0.6
			c-0.2,0.2-0.4,0.2-0.7,0.2H32.9z M33.1,39.9h0.9c0.2,0,0.3-0.1,0.4-0.2c0.1-0.1,0.2-0.3,0.2-0.4s-0.1-0.3-0.2-0.4
			c-0.1-0.1-0.3-0.2-0.4-0.2h-0.9V39.9z M33.1,41.5H34c0.2,0,0.4-0.1,0.5-0.2c0.1-0.1,0.2-0.3,0.2-0.5c0-0.2-0.1-0.4-0.2-0.5
			c-0.1-0.1-0.3-0.2-0.5-0.2h-1V41.5z"/>
		<path d="M35.8,41.7v-2.2H36v0.5l0,0c0-0.1,0.1-0.3,0.2-0.3c0.1-0.1,0.2-0.1,0.4-0.1h0.1v0.2h-0.1c-0.2,0-0.3,0.1-0.4,0.2
			C36,40,36,40.1,36,40.3v1.3H35.8z"/>
		<path d="M37.4,39v-0.5h0.2V39H37.4z M37.4,41.7v-2.2h0.2v2.2H37.4z"/>
		<path d="M39.4,41.7c-0.2,0-0.4-0.1-0.5-0.2c-0.2-0.1-0.3-0.2-0.4-0.4c-0.1-0.2-0.1-0.4-0.1-0.6c0-0.2,0-0.4,0.1-0.6
			c0.1-0.2,0.2-0.3,0.4-0.4c0.2-0.1,0.3-0.1,0.5-0.1c0.2,0,0.4,0.1,0.5,0.2c0.2,0.1,0.3,0.3,0.3,0.4l0,0.1v-1.6h0.2v3.1h-0.2V41
			l0,0.1c-0.1,0.2-0.2,0.3-0.3,0.4C39.8,41.7,39.6,41.7,39.4,41.7z M39.4,41.5c0.2,0,0.3,0,0.4-0.1c0.1-0.1,0.2-0.2,0.3-0.3
			c0.1-0.1,0.1-0.3,0.1-0.5c0-0.2,0-0.3-0.1-0.5c-0.1-0.1-0.2-0.3-0.3-0.3c-0.1-0.1-0.3-0.1-0.4-0.1c-0.2,0-0.3,0-0.4,0.1
			c-0.1,0.1-0.2,0.2-0.3,0.3c-0.1,0.1-0.1,0.3-0.1,0.5c0,0.2,0,0.3,0.1,0.5c0.1,0.1,0.2,0.3,0.3,0.3C39.1,41.5,39.3,41.5,39.4,41.5z
			"/>
		<path d="M42.3,42.6c-0.1,0-0.3,0-0.4-0.1c-0.1,0-0.2-0.1-0.3-0.2c-0.1-0.1-0.2-0.2-0.2-0.3l0.1-0.1c0.1,0.1,0.2,0.2,0.3,0.3
			c0.1,0.1,0.3,0.1,0.4,0.1c0.1,0,0.3,0,0.4-0.1c0.1-0.1,0.2-0.1,0.3-0.3c0.1-0.1,0.1-0.3,0.1-0.5V41l0,0.1
			c-0.1,0.2-0.2,0.3-0.3,0.4c-0.2,0.1-0.3,0.2-0.5,0.2c-0.2,0-0.4,0-0.5-0.1c-0.1-0.1-0.3-0.2-0.3-0.4c-0.1-0.2-0.1-0.3-0.1-0.6
			c0-0.2,0-0.4,0.1-0.6c0.1-0.2,0.2-0.3,0.3-0.4c0.1-0.1,0.3-0.1,0.5-0.1c0.2,0,0.4,0.1,0.5,0.2c0.2,0.1,0.3,0.3,0.3,0.4l0,0.1v-0.6
			h0.2v2.1c0,0.2,0,0.4-0.1,0.5c-0.1,0.1-0.2,0.3-0.3,0.4C42.7,42.5,42.5,42.6,42.3,42.6z M42.3,41.4c0.2,0,0.3,0,0.4-0.1
			c0.1-0.1,0.2-0.2,0.3-0.3c0.1-0.1,0.1-0.3,0.1-0.5c0-0.2,0-0.3-0.1-0.5c-0.1-0.1-0.2-0.2-0.3-0.3c-0.1-0.1-0.3-0.1-0.4-0.1
			c-0.2,0-0.3,0-0.4,0.1c-0.1,0.1-0.2,0.2-0.3,0.3c-0.1,0.1-0.1,0.3-0.1,0.5s0,0.3,0.1,0.5c0.1,0.1,0.2,0.2,0.3,0.3
			C42,41.4,42.1,41.4,42.3,41.4z"/>
		<path d="M45.2,41.7c-0.2,0-0.4-0.1-0.5-0.2c-0.2-0.1-0.3-0.2-0.4-0.4c-0.1-0.2-0.1-0.4-0.1-0.6c0-0.2,0-0.4,0.1-0.6
			c0.1-0.2,0.2-0.3,0.4-0.4c0.1-0.1,0.3-0.1,0.5-0.1c0.1,0,0.3,0,0.4,0.1c0.1,0.1,0.2,0.1,0.3,0.2c0.1,0.1,0.1,0.2,0.2,0.3
			c0,0.1,0.1,0.3,0.1,0.4c0,0,0,0.1,0,0.1c0,0,0,0.1,0,0.1h-1.8v-0.2h1.7l-0.1,0.1c0-0.2,0-0.3-0.1-0.5c-0.1-0.1-0.2-0.2-0.3-0.3
			c-0.1-0.1-0.2-0.1-0.4-0.1c-0.2,0-0.3,0-0.4,0.1c-0.1,0.1-0.2,0.2-0.3,0.3c-0.1,0.1-0.1,0.3-0.1,0.5c0,0.2,0,0.3,0.1,0.5
			c0.1,0.1,0.2,0.3,0.3,0.3c0.1,0.1,0.3,0.1,0.4,0.1c0.1,0,0.3,0,0.4-0.1c0.1-0.1,0.2-0.2,0.3-0.3l0.1,0.1c0,0.1-0.1,0.2-0.2,0.3
			c-0.1,0.1-0.2,0.1-0.3,0.2C45.4,41.7,45.3,41.7,45.2,41.7z"/>
		<path d="M47.3,41.7l-0.7-2.2h0.2l0.6,2h-0.1l0.6-2h0.2l0.6,2h-0.1l0.6-2h0.2l-0.7,2.2h-0.2L48,39.7h0l-0.5,1.9H47.3z"/>
		<path d="M50.6,41.7c-0.1,0-0.2,0-0.3-0.1c-0.1-0.1-0.2-0.1-0.2-0.2C50,41.3,50,41.2,50,41.1c0-0.1,0-0.2,0.1-0.3
			c0-0.1,0.1-0.2,0.2-0.2s0.2-0.1,0.4-0.1l0.8-0.2v0.2l-0.8,0.1c-0.2,0-0.3,0.1-0.4,0.2s-0.1,0.2-0.1,0.3c0,0.1,0,0.2,0.1,0.3
			c0.1,0.1,0.2,0.1,0.4,0.1c0.2,0,0.3,0,0.4-0.1c0.1-0.1,0.2-0.2,0.3-0.3c0.1-0.1,0.1-0.3,0.1-0.4v-0.5c0-0.2-0.1-0.3-0.2-0.4
			c-0.1-0.1-0.2-0.1-0.4-0.1c-0.1,0-0.3,0-0.4,0.1c-0.1,0.1-0.2,0.2-0.3,0.3l-0.2-0.1c0-0.1,0.1-0.2,0.2-0.2
			c0.1-0.1,0.2-0.1,0.3-0.2c0.1,0,0.2-0.1,0.3-0.1c0.1,0,0.3,0,0.4,0.1c0.1,0.1,0.2,0.1,0.3,0.3c0.1,0.1,0.1,0.2,0.1,0.4v1.5h-0.2
			v-0.5h0c0,0.1-0.1,0.2-0.2,0.3c-0.1,0.1-0.2,0.1-0.3,0.2C50.9,41.7,50.8,41.7,50.6,41.7z"/>
		<path d="M52.5,42.6c0,0-0.1,0-0.1,0c0,0-0.1,0-0.1,0v-0.2c0,0,0.1,0,0.1,0c0,0,0.1,0,0.1,0c0.1,0,0.2,0,0.3-0.1
			c0.1-0.1,0.1-0.2,0.2-0.3l0.2-0.4l0,0.2l-0.9-2.3h0.2l0.8,2.1h-0.1l0.8-2.1h0.2l-1,2.5c0,0.1-0.1,0.2-0.1,0.2
			c-0.1,0.1-0.1,0.2-0.2,0.2S52.6,42.6,52.5,42.6z"/>
		<path d="M56.4,41.7c-0.2,0-0.3,0-0.5-0.1c-0.1-0.1-0.2-0.2-0.3-0.4l0.2-0.1c0.1,0.1,0.2,0.2,0.3,0.3c0.1,0.1,0.2,0.1,0.4,0.1
			c0.1,0,0.3,0,0.4-0.1c0.1-0.1,0.1-0.2,0.1-0.3c0-0.1,0-0.1,0-0.2c0-0.1-0.1-0.1-0.1-0.1c-0.1,0-0.1-0.1-0.2-0.1l-0.3-0.1
			c-0.2,0-0.3-0.1-0.4-0.2c-0.1-0.1-0.1-0.2-0.1-0.4c0-0.1,0-0.2,0.1-0.3c0.1-0.1,0.1-0.2,0.2-0.2c0.1,0,0.2-0.1,0.3-0.1
			c0.2,0,0.3,0,0.4,0.1c0.1,0.1,0.2,0.2,0.3,0.4L56.9,40c-0.1-0.1-0.1-0.2-0.2-0.3c-0.1-0.1-0.2-0.1-0.3-0.1c-0.1,0-0.2,0-0.3,0.1
			c-0.1,0.1-0.1,0.2-0.1,0.3c0,0.1,0,0.1,0,0.2c0,0,0.1,0.1,0.1,0.1c0.1,0,0.1,0.1,0.2,0.1l0.3,0.1c0.2,0,0.3,0.1,0.4,0.2
			c0.1,0.1,0.1,0.2,0.1,0.4c0,0.1,0,0.2-0.1,0.3c-0.1,0.1-0.1,0.2-0.2,0.2C56.6,41.7,56.5,41.7,56.4,41.7z"/>
		<path d="M58.7,41.7c-0.1,0-0.3,0-0.4-0.1c-0.1-0.1-0.2-0.2-0.3-0.3c-0.1-0.1-0.1-0.3-0.1-0.4v-1.4h0.2v1.4c0,0.1,0,0.3,0.1,0.4
			c0.1,0.1,0.1,0.2,0.2,0.2c0.1,0,0.2,0.1,0.3,0.1c0.1,0,0.2,0,0.3-0.1c0.1-0.1,0.2-0.2,0.2-0.3c0-0.1,0.1-0.2,0.1-0.4v-1.3h0.2v2.2
			h-0.2v-0.5l0,0c0,0.1-0.1,0.3-0.2,0.4C59,41.7,58.8,41.7,58.7,41.7z"/>
		<path d="M60.4,42.5v-3h0.2v0.6l0-0.1c0.1-0.2,0.2-0.3,0.3-0.4c0.2-0.1,0.3-0.2,0.5-0.2c0.2,0,0.4,0,0.5,0.1
			c0.2,0.1,0.3,0.2,0.4,0.4c0.1,0.2,0.1,0.4,0.1,0.6c0,0.2,0,0.4-0.1,0.6c-0.1,0.2-0.2,0.3-0.4,0.4c-0.2,0.1-0.3,0.2-0.5,0.2
			c-0.2,0-0.4-0.1-0.5-0.2c-0.2-0.1-0.3-0.3-0.3-0.4l0-0.1v1.4H60.4z M61.4,41.5c0.2,0,0.3,0,0.4-0.1c0.1-0.1,0.2-0.2,0.3-0.3
			c0.1-0.1,0.1-0.3,0.1-0.5c0-0.2,0-0.3-0.1-0.5c-0.1-0.1-0.2-0.3-0.3-0.3c-0.1-0.1-0.3-0.1-0.4-0.1c-0.2,0-0.3,0-0.4,0.1
			c-0.1,0.1-0.2,0.2-0.3,0.3c-0.1,0.1-0.1,0.3-0.1,0.5c0,0.2,0,0.3,0.1,0.5c0.1,0.1,0.2,0.3,0.3,0.3C61.1,41.5,61.3,41.5,61.4,41.5z
			"/>
		<path d="M63.3,42.5v-3h0.2v0.6l0-0.1c0.1-0.2,0.2-0.3,0.3-0.4c0.2-0.1,0.3-0.2,0.5-0.2c0.2,0,0.4,0,0.5,0.1
			c0.2,0.1,0.3,0.2,0.4,0.4c0.1,0.2,0.1,0.4,0.1,0.6c0,0.2,0,0.4-0.1,0.6c-0.1,0.2-0.2,0.3-0.4,0.4c-0.2,0.1-0.3,0.2-0.5,0.2
			c-0.2,0-0.4-0.1-0.5-0.2c-0.2-0.1-0.3-0.3-0.3-0.4l0-0.1v1.4H63.3z M64.3,41.5c0.2,0,0.3,0,0.4-0.1c0.1-0.1,0.2-0.2,0.3-0.3
			c0.1-0.1,0.1-0.3,0.1-0.5c0-0.2,0-0.3-0.1-0.5s-0.2-0.3-0.3-0.3c-0.1-0.1-0.3-0.1-0.4-0.1c-0.2,0-0.3,0-0.4,0.1
			c-0.1,0.1-0.2,0.2-0.3,0.3c-0.1,0.1-0.1,0.3-0.1,0.5c0,0.2,0,0.3,0.1,0.5c0.1,0.1,0.2,0.3,0.3,0.3C64,41.5,64.1,41.5,64.3,41.5z"
			/>
		<path d="M67.1,41.7c-0.2,0-0.4,0-0.5-0.1c-0.2-0.1-0.3-0.2-0.4-0.4c-0.1-0.2-0.1-0.4-0.1-0.6c0-0.2,0-0.4,0.1-0.6
			c0.1-0.2,0.2-0.3,0.4-0.4c0.2-0.1,0.3-0.1,0.5-0.1c0.2,0,0.4,0,0.5,0.1c0.2,0.1,0.3,0.2,0.4,0.4c0.1,0.2,0.1,0.4,0.1,0.6
			c0,0.2,0,0.4-0.1,0.6c-0.1,0.2-0.2,0.3-0.4,0.4C67.5,41.7,67.3,41.7,67.1,41.7z M67.1,41.5c0.2,0,0.3,0,0.4-0.1
			c0.1-0.1,0.2-0.2,0.3-0.3c0.1-0.1,0.1-0.3,0.1-0.5c0-0.2,0-0.3-0.1-0.5c-0.1-0.1-0.2-0.3-0.3-0.3c-0.1-0.1-0.3-0.1-0.4-0.1
			c-0.2,0-0.3,0-0.4,0.1c-0.1,0.1-0.2,0.2-0.3,0.3c-0.1,0.1-0.1,0.3-0.1,0.5c0,0.2,0,0.3,0.1,0.5c0.1,0.1,0.2,0.3,0.3,0.3
			C66.8,41.5,66.9,41.5,67.1,41.5z"/>
		<path d="M69,41.7v-2.2h0.2v0.5l0,0c0-0.1,0.1-0.3,0.2-0.3c0.1-0.1,0.2-0.1,0.4-0.1h0.1v0.2h-0.1c-0.2,0-0.3,0.1-0.4,0.2
			c-0.1,0.1-0.2,0.3-0.2,0.5v1.3H69z"/>
		<path d="M71.2,41.7c-0.2,0-0.3,0-0.4-0.1c-0.1-0.1-0.1-0.2-0.1-0.4v-1.5h-0.4v-0.2h0.2c0.1,0,0.1,0,0.1-0.1c0,0,0-0.1,0-0.2V39
			h0.2v0.5h0.4v0.2h-0.4v1.5c0,0,0,0.1,0,0.2c0,0.1,0,0.1,0.1,0.1c0,0,0.1,0.1,0.2,0.1c0,0,0,0,0.1,0c0,0,0.1,0,0.1,0v0.2
			C71.4,41.7,71.4,41.7,71.2,41.7C71.3,41.7,71.3,41.7,71.2,41.7z"/>
		<path d="M72.3,39v-0.5h0.2V39H72.3z M72.3,41.7v-2.2h0.2v2.2H72.3z"/>
		<path d="M73.4,41.7v-2.2h0.2v0.5l0,0c0-0.1,0.1-0.3,0.2-0.4c0.1-0.1,0.3-0.1,0.4-0.1c0.1,0,0.3,0,0.4,0.1c0.1,0.1,0.2,0.2,0.3,0.3
			c0.1,0.1,0.1,0.3,0.1,0.4v1.4h-0.2v-1.4c0-0.1,0-0.2-0.1-0.3c-0.1-0.1-0.1-0.2-0.2-0.2c-0.1-0.1-0.2-0.1-0.3-0.1
			c-0.1,0-0.2,0-0.3,0.1c-0.1,0.1-0.2,0.2-0.2,0.3s-0.1,0.2-0.1,0.4v1.3H73.4z"/>
		<path d="M76.8,42.6c-0.1,0-0.3,0-0.4-0.1c-0.1,0-0.2-0.1-0.3-0.2c-0.1-0.1-0.2-0.2-0.2-0.3l0.1-0.1c0.1,0.1,0.2,0.2,0.3,0.3
			c0.1,0.1,0.3,0.1,0.4,0.1c0.1,0,0.3,0,0.4-0.1c0.1-0.1,0.2-0.1,0.3-0.3c0.1-0.1,0.1-0.3,0.1-0.5V41l0,0.1
			c-0.1,0.2-0.2,0.3-0.3,0.4c-0.2,0.1-0.3,0.2-0.5,0.2c-0.2,0-0.4,0-0.5-0.1c-0.1-0.1-0.3-0.2-0.3-0.4c-0.1-0.2-0.1-0.3-0.1-0.6
			c0-0.2,0-0.4,0.1-0.6c0.1-0.2,0.2-0.3,0.3-0.4c0.1-0.1,0.3-0.1,0.5-0.1c0.2,0,0.4,0.1,0.5,0.2s0.3,0.3,0.3,0.4l0,0.1v-0.6h0.2v2.1
			c0,0.2,0,0.4-0.1,0.5s-0.2,0.3-0.3,0.4C77.1,42.5,77,42.6,76.8,42.6z M76.8,41.4c0.2,0,0.3,0,0.4-0.1c0.1-0.1,0.2-0.2,0.3-0.3
			s0.1-0.3,0.1-0.5c0-0.2,0-0.3-0.1-0.5c-0.1-0.1-0.2-0.2-0.3-0.3c-0.1-0.1-0.3-0.1-0.4-0.1c-0.2,0-0.3,0-0.4,0.1
			c-0.1,0.1-0.2,0.2-0.3,0.3C76,40.2,76,40.4,76,40.5s0,0.3,0.1,0.5c0.1,0.1,0.2,0.2,0.3,0.3C76.5,41.4,76.6,41.4,76.8,41.4z"/>
		<path d="M80.2,41.7c-0.2,0-0.3,0-0.5-0.1c-0.1-0.1-0.2-0.2-0.3-0.4l0.2-0.1c0.1,0.1,0.2,0.2,0.3,0.3c0.1,0.1,0.2,0.1,0.4,0.1
			c0.1,0,0.3,0,0.4-0.1c0.1-0.1,0.1-0.2,0.1-0.3c0-0.1,0-0.1,0-0.2c0-0.1-0.1-0.1-0.1-0.1c-0.1,0-0.1-0.1-0.2-0.1L80,40.6
			c-0.2,0-0.3-0.1-0.4-0.2c-0.1-0.1-0.1-0.2-0.1-0.4c0-0.1,0-0.2,0.1-0.3c0.1-0.1,0.1-0.2,0.2-0.2c0.1,0,0.2-0.1,0.3-0.1
			c0.2,0,0.3,0,0.4,0.1c0.1,0.1,0.2,0.2,0.3,0.4L80.7,40c-0.1-0.1-0.1-0.2-0.2-0.3c-0.1-0.1-0.2-0.1-0.3-0.1c-0.1,0-0.2,0-0.3,0.1
			c-0.1,0.1-0.1,0.2-0.1,0.3c0,0.1,0,0.1,0,0.2c0,0,0.1,0.1,0.1,0.1c0.1,0,0.1,0.1,0.2,0.1l0.3,0.1c0.2,0,0.3,0.1,0.4,0.2
			c0.1,0.1,0.1,0.2,0.1,0.4c0,0.1,0,0.2-0.1,0.3c-0.1,0.1-0.1,0.2-0.2,0.2C80.5,41.7,80.4,41.7,80.2,41.7z"/>
		<path d="M82.7,41.7c-0.2,0-0.4-0.1-0.5-0.2c-0.2-0.1-0.3-0.2-0.4-0.4s-0.1-0.4-0.1-0.6c0-0.2,0-0.4,0.1-0.6
			c0.1-0.2,0.2-0.3,0.4-0.4c0.1-0.1,0.3-0.1,0.5-0.1c0.1,0,0.3,0,0.4,0.1c0.1,0.1,0.2,0.1,0.3,0.2c0.1,0.1,0.1,0.2,0.2,0.3
			c0,0.1,0.1,0.3,0.1,0.4c0,0,0,0.1,0,0.1c0,0,0,0.1,0,0.1h-1.8v-0.2h1.7l-0.1,0.1c0-0.2,0-0.3-0.1-0.5c-0.1-0.1-0.2-0.2-0.3-0.3
			c-0.1-0.1-0.2-0.1-0.4-0.1c-0.2,0-0.3,0-0.4,0.1c-0.1,0.1-0.2,0.2-0.3,0.3c-0.1,0.1-0.1,0.3-0.1,0.5c0,0.2,0,0.3,0.1,0.5
			c0.1,0.1,0.2,0.3,0.3,0.3c0.1,0.1,0.3,0.1,0.4,0.1c0.1,0,0.3,0,0.4-0.1c0.1-0.1,0.2-0.2,0.3-0.3l0.1,0.1c0,0.1-0.1,0.2-0.2,0.3
			c-0.1,0.1-0.2,0.1-0.3,0.2C83,41.7,82.9,41.7,82.7,41.7z"/>
		<path d="M84.5,41.7v-2.2h0.2v0.5l0,0c0-0.1,0.1-0.3,0.2-0.3c0.1-0.1,0.2-0.1,0.4-0.1h0.1v0.2h-0.1c-0.2,0-0.3,0.1-0.4,0.2
			s-0.2,0.3-0.2,0.5v1.3H84.5z"/>
		<path d="M86.6,41.7l-0.8-2.2H86l0.8,2h-0.1l0.8-2h0.2l-0.8,2.2H86.6z"/>
		<path d="M88.3,39v-0.5h0.2V39H88.3z M88.3,41.7v-2.2h0.2v2.2H88.3z"/>
		<path d="M90.4,41.7c-0.2,0-0.4,0-0.5-0.1c-0.2-0.1-0.3-0.2-0.4-0.4c-0.1-0.2-0.1-0.4-0.1-0.6c0-0.2,0-0.4,0.1-0.6
			c0.1-0.2,0.2-0.3,0.4-0.4c0.2-0.1,0.3-0.1,0.5-0.1c0.1,0,0.2,0,0.3,0.1c0.1,0,0.2,0.1,0.3,0.2c0.1,0.1,0.1,0.2,0.2,0.3L91,40
			c-0.1-0.1-0.2-0.2-0.3-0.3c-0.1-0.1-0.2-0.1-0.4-0.1c-0.2,0-0.3,0-0.4,0.1c-0.1,0.1-0.2,0.2-0.3,0.3c-0.1,0.1-0.1,0.3-0.1,0.5
			c0,0.2,0,0.4,0.1,0.5c0.1,0.1,0.2,0.3,0.3,0.3c0.1,0.1,0.3,0.1,0.4,0.1c0.1,0,0.3,0,0.4-0.1c0.1-0.1,0.2-0.2,0.3-0.3l0.1,0.1
			c0,0.1-0.1,0.2-0.2,0.3c-0.1,0.1-0.2,0.1-0.3,0.2C90.6,41.7,90.5,41.7,90.4,41.7z"/>
		<path d="M93,41.7c-0.2,0-0.4-0.1-0.5-0.2c-0.2-0.1-0.3-0.2-0.4-0.4S92,40.8,92,40.6c0-0.2,0-0.4,0.1-0.6c0.1-0.2,0.2-0.3,0.4-0.4
			c0.1-0.1,0.3-0.1,0.5-0.1c0.1,0,0.3,0,0.4,0.1c0.1,0.1,0.2,0.1,0.3,0.2c0.1,0.1,0.1,0.2,0.2,0.3c0,0.1,0.1,0.3,0.1,0.4
			c0,0,0,0.1,0,0.1c0,0,0,0.1,0,0.1h-1.8v-0.2h1.7l-0.1,0.1c0-0.2,0-0.3-0.1-0.5c-0.1-0.1-0.2-0.2-0.3-0.3c-0.1-0.1-0.2-0.1-0.4-0.1
			c-0.2,0-0.3,0-0.4,0.1c-0.1,0.1-0.2,0.2-0.3,0.3c-0.1,0.1-0.1,0.3-0.1,0.5c0,0.2,0,0.3,0.1,0.5c0.1,0.1,0.2,0.3,0.3,0.3
			c0.1,0.1,0.3,0.1,0.4,0.1c0.1,0,0.3,0,0.4-0.1c0.1-0.1,0.2-0.2,0.3-0.3l0.1,0.1c0,0.1-0.1,0.2-0.2,0.3s-0.2,0.1-0.3,0.2
			C93.2,41.7,93.1,41.7,93,41.7z"/>
	</g>
</g>
</svg>
