<?xml version="1.0" encoding="utf-8"?>
<!-- Generator: Adobe Illustrator 25.0.0, SVG Export Plug-In . SVG Version: 6.00 Build 0)  -->
<svg version="1.1" id="Layer_1" xmlns="http://www.w3.org/2000/svg" xmlns:xlink="http://www.w3.org/1999/xlink" x="0px" y="0px"
	 viewBox="0 0 369 937" style="enable-background:new 0 0 369 937;" xml:space="preserve">
<style type="text/css">
	.st0{opacity:0.4;fill:#B19357;}
	.st1{opacity:0.4;fill:#2D467A;}
	.st2{opacity:0.4;fill:#902D3A;}
	.st3{opacity:0.4;fill:#19263F;}
	.st4{fill:#B19357;}
	.st5{fill:#2D467A;}
	.st6{fill:#902D3A;}
	.st7{fill:#19263F;}
</style>
<circle class="st0" cx="250" cy="284" r="15"/>
<circle class="st1" cx="242.5" cy="540.5" r="7.5"/>
<circle class="st0" cx="67.5" cy="70.5" r="24.5"/>
<circle class="st2" cx="334.5" cy="20.5" r="10.5"/>
<path class="st3" d="M-154.2,318.6L197.6,51.5c37.5-28.4,90.9-21.1,119.3,16.3l0,0c28.4,37.5,21.1,90.9-16.3,119.3L-51.2,454.2
	c-37.5,28.4-90.9,21.1-119.3-16.3l0,0C-198.9,400.4-191.6,347-154.2,318.6z"/>
<path class="st2" d="M-128.9,551.8l289.3-219.6c30.8-23.4,74.7-17.4,98.1,13.4l0,0c23.4,30.8,17.4,74.7-13.4,98.1L-44.2,663.4
	c-30.8,23.4-74.7,17.4-98.1-13.4l0,0C-165.7,619.1-159.7,575.2-128.9,551.8z"/>
<path class="st0" d="M-129.8,809.2l270.5-205.4c25.5-19.4,62-14.4,81.3,11.1l0,0c19.4,25.5,14.4,62-11.1,81.3L-59.6,901.7
	c-25.5,19.4-62,14.4-81.3-11.1l0,0C-160.3,865-155.3,828.6-129.8,809.2z"/>
<rect x="-950.6" y="-81.1" class="st4" width="126.9" height="51.6"/>
<rect x="-1101.3" y="-75.6" class="st5" width="126.9" height="51.6"/>
<rect x="-779.5" y="-81.1" class="st6" width="126.9" height="51.6"/>
<rect x="-608.3" y="-75.6" class="st7" width="126.9" height="51.6"/>
</svg>
