<?xml version="1.0" encoding="utf-8"?>
<!-- Generator: Adobe Illustrator 25.0.0, SVG Export Plug-In . SVG Version: 6.00 Build 0)  -->
<svg version="1.1" id="Layer_1" xmlns="http://www.w3.org/2000/svg" xmlns:xlink="http://www.w3.org/1999/xlink" x="0px" y="0px"
	 viewBox="0 0 40 40" style="enable-background:new 0 0 40 40;" xml:space="preserve">
<style type="text/css">
	.st0{opacity:0.71;fill:#2D467A;}
	.st1{fill:#FFFFFF;}
	.st2{fill:#2D467A;}
</style>
<path class="st0" d="M20,0L20,0c11,0,20,9,20,20l0,0c0,11-9,20-20,20l0,0C9,40,0,31,0,20l0,0C0,9,9,0,20,0z"/>
<path class="st1" d="M25.4,18.6l-4.3-4.3l-1.4,1.4L23,19H13v2h10l-3.3,3.3l1.4,1.4l4.3-4.3C25.8,21,26,20.5,26,20S25.8,19,25.4,18.6
	z"/>
<rect x="-23.4" y="87.2" class="st2" width="126.9" height="51.6"/>
</svg>
